<mxfile modified="2021-05-04T15:59:57.696Z" host="app.diagrams.net" agent="5.0 (Windows NT 10.0; Win64; x64) AppleWebKit/537.36 (KHTML, like Gecko) Chrome/90.0.4430.93 Safari/537.36" etag="bfmgal1XgQJ0XLGImw7q" version="14.6.6" type="github">
  <diagram id="Ht1M8jgEwFfnCIfOTk4-" name="Page-1">
    <mxGraphModel dx="1185" dy="668" grid="0" gridSize="10" guides="1" tooltips="1" connect="1" arrows="1" fold="1" page="1" pageScale="1" pageWidth="1169" pageHeight="827" math="0" shadow="0">
      <root>
        <mxCell id="0" />
        <mxCell id="1" parent="0" />
        <mxCell id="m9SWjibg19vGXVu4Jazo-14" value="" style="rounded=0;whiteSpace=wrap;html=1;fillColor=none;labelPosition=center;verticalLabelPosition=middle;align=center;verticalAlign=middle;dashed=1;" vertex="1" parent="1">
          <mxGeometry x="54" y="263" width="464" height="168" as="geometry" />
        </mxCell>
        <mxCell id="m9SWjibg19vGXVu4Jazo-1" value="Terraform State &lt;br&gt;storage" style="outlineConnect=0;fontColor=#232F3E;gradientColor=none;fillColor=#277116;strokeColor=none;dashed=0;verticalLabelPosition=middle;verticalAlign=middle;align=left;html=1;fontSize=12;fontStyle=0;aspect=fixed;pointerEvents=1;shape=mxgraph.aws4.bucket;labelPosition=right;" vertex="1" parent="1">
          <mxGeometry x="291.87" y="110" width="55.77" height="58" as="geometry" />
        </mxCell>
        <mxCell id="m9SWjibg19vGXVu4Jazo-13" value="Terraform Apply" style="edgeStyle=orthogonalEdgeStyle;rounded=0;orthogonalLoop=1;jettySize=auto;html=1;" edge="1" parent="1" source="m9SWjibg19vGXVu4Jazo-2" target="m9SWjibg19vGXVu4Jazo-9">
          <mxGeometry relative="1" as="geometry" />
        </mxCell>
        <mxCell id="m9SWjibg19vGXVu4Jazo-2" value="Alice" style="outlineConnect=0;fontColor=#232F3E;gradientColor=none;fillColor=#232F3E;strokeColor=none;dashed=0;verticalLabelPosition=bottom;verticalAlign=top;align=center;html=1;fontSize=12;fontStyle=0;aspect=fixed;pointerEvents=1;shape=mxgraph.aws4.user;" vertex="1" parent="1">
          <mxGeometry x="251.75" y="513" width="78" height="78" as="geometry" />
        </mxCell>
        <mxCell id="m9SWjibg19vGXVu4Jazo-11" style="edgeStyle=orthogonalEdgeStyle;rounded=0;orthogonalLoop=1;jettySize=auto;html=1;entryX=0.989;entryY=0.72;entryDx=0;entryDy=0;entryPerimeter=0;exitX=0.5;exitY=0;exitDx=0;exitDy=0;exitPerimeter=0;" edge="1" parent="1" source="m9SWjibg19vGXVu4Jazo-3" target="m9SWjibg19vGXVu4Jazo-8">
          <mxGeometry relative="1" as="geometry" />
        </mxCell>
        <mxCell id="m9SWjibg19vGXVu4Jazo-3" value="Existing EC2 &lt;br&gt;instance" style="points=[[0,0,0],[0.25,0,0],[0.5,0,0],[0.75,0,0],[1,0,0],[0,1,0],[0.25,1,0],[0.5,1,0],[0.75,1,0],[1,1,0],[0,0.25,0],[0,0.5,0],[0,0.75,0],[1,0.25,0],[1,0.5,0],[1,0.75,0]];outlineConnect=0;fontColor=#232F3E;gradientColor=#F78E04;gradientDirection=north;fillColor=#D05C17;strokeColor=#ffffff;dashed=0;verticalLabelPosition=middle;verticalAlign=middle;align=left;html=1;fontSize=12;fontStyle=0;aspect=fixed;shape=mxgraph.aws4.resourceIcon;resIcon=mxgraph.aws4.ec2;labelPosition=right;" vertex="1" parent="1">
          <mxGeometry x="326.88" y="295" width="78" height="78" as="geometry" />
        </mxCell>
        <mxCell id="m9SWjibg19vGXVu4Jazo-8" value="State file" style="verticalLabelPosition=bottom;html=1;verticalAlign=top;align=center;strokeColor=none;fillColor=#00BEF2;shape=mxgraph.azure.cloud_services_configuration_file;pointerEvents=1;" vertex="1" parent="1">
          <mxGeometry x="267" y="149" width="47.5" height="50" as="geometry" />
        </mxCell>
        <mxCell id="m9SWjibg19vGXVu4Jazo-12" value="Terraform adds Load &lt;br&gt;Balancer to State" style="edgeStyle=orthogonalEdgeStyle;rounded=0;orthogonalLoop=1;jettySize=auto;html=1;entryX=-0.008;entryY=0.729;entryDx=0;entryDy=0;entryPerimeter=0;" edge="1" parent="1" source="m9SWjibg19vGXVu4Jazo-9" target="m9SWjibg19vGXVu4Jazo-8">
          <mxGeometry x="-0.4667" relative="1" as="geometry">
            <mxPoint x="216" y="294" as="sourcePoint" />
            <Array as="points">
              <mxPoint x="216" y="185" />
              <mxPoint x="267" y="185" />
            </Array>
            <mxPoint as="offset" />
          </mxGeometry>
        </mxCell>
        <mxCell id="m9SWjibg19vGXVu4Jazo-9" value="New Load &lt;br&gt;Balancer" style="outlineConnect=0;fontColor=#232F3E;gradientColor=none;fillColor=#5A30B5;strokeColor=none;dashed=0;verticalLabelPosition=middle;verticalAlign=middle;align=right;html=1;fontSize=12;fontStyle=0;aspect=fixed;pointerEvents=1;shape=mxgraph.aws4.application_load_balancer;labelPosition=left;" vertex="1" parent="1">
          <mxGeometry x="177" y="299" width="78" height="78" as="geometry" />
        </mxCell>
        <mxCell id="m9SWjibg19vGXVu4Jazo-15" value="Alice&#39;s Terraform code &lt;br&gt;in her Feature Branch" style="text;html=1;resizable=0;autosize=1;align=center;verticalAlign=middle;points=[];fillColor=none;strokeColor=none;rounded=0;fontStyle=1" vertex="1" parent="1">
          <mxGeometry x="60" y="392" width="139" height="32" as="geometry" />
        </mxCell>
        <mxCell id="m9SWjibg19vGXVu4Jazo-17" value="" style="rounded=0;whiteSpace=wrap;html=1;fillColor=none;labelPosition=center;verticalLabelPosition=middle;align=center;verticalAlign=middle;dashed=1;" vertex="1" parent="1">
          <mxGeometry x="620" y="259.5" width="468" height="168" as="geometry" />
        </mxCell>
        <mxCell id="m9SWjibg19vGXVu4Jazo-18" value="Terraform State &lt;br&gt;storage" style="outlineConnect=0;fontColor=#232F3E;gradientColor=none;fillColor=#277116;strokeColor=none;dashed=0;verticalLabelPosition=middle;verticalAlign=middle;align=left;html=1;fontSize=12;fontStyle=0;aspect=fixed;pointerEvents=1;shape=mxgraph.aws4.bucket;labelPosition=right;" vertex="1" parent="1">
          <mxGeometry x="857.87" y="106.5" width="55.77" height="58" as="geometry" />
        </mxCell>
        <mxCell id="m9SWjibg19vGXVu4Jazo-19" value="Terraform Apply" style="edgeStyle=orthogonalEdgeStyle;rounded=0;orthogonalLoop=1;jettySize=auto;html=1;entryX=0.5;entryY=1;entryDx=0;entryDy=0;entryPerimeter=0;" edge="1" parent="1" source="m9SWjibg19vGXVu4Jazo-20" target="m9SWjibg19vGXVu4Jazo-22">
          <mxGeometry relative="1" as="geometry" />
        </mxCell>
        <mxCell id="m9SWjibg19vGXVu4Jazo-20" value="Bob" style="outlineConnect=0;fontColor=#232F3E;gradientColor=none;fillColor=#232F3E;strokeColor=none;dashed=0;verticalLabelPosition=bottom;verticalAlign=top;align=center;html=1;fontSize=12;fontStyle=0;aspect=fixed;pointerEvents=1;shape=mxgraph.aws4.user;" vertex="1" parent="1">
          <mxGeometry x="817.75" y="509.5" width="78" height="78" as="geometry" />
        </mxCell>
        <mxCell id="m9SWjibg19vGXVu4Jazo-21" style="edgeStyle=orthogonalEdgeStyle;rounded=0;orthogonalLoop=1;jettySize=auto;html=1;entryX=0.989;entryY=0.72;entryDx=0;entryDy=0;entryPerimeter=0;exitX=0.5;exitY=0;exitDx=0;exitDy=0;exitPerimeter=0;" edge="1" parent="1" source="m9SWjibg19vGXVu4Jazo-22" target="m9SWjibg19vGXVu4Jazo-23">
          <mxGeometry relative="1" as="geometry" />
        </mxCell>
        <mxCell id="m9SWjibg19vGXVu4Jazo-22" value="New EC2 &lt;br&gt;instance" style="points=[[0,0,0],[0.25,0,0],[0.5,0,0],[0.75,0,0],[1,0,0],[0,1,0],[0.25,1,0],[0.5,1,0],[0.75,1,0],[1,1,0],[0,0.25,0],[0,0.5,0],[0,0.75,0],[1,0.25,0],[1,0.5,0],[1,0.75,0]];outlineConnect=0;fontColor=#232F3E;gradientColor=#F78E04;gradientDirection=north;fillColor=#D05C17;strokeColor=#ffffff;dashed=0;verticalLabelPosition=middle;verticalAlign=middle;align=left;html=1;fontSize=12;fontStyle=0;aspect=fixed;shape=mxgraph.aws4.resourceIcon;resIcon=mxgraph.aws4.ec2;labelPosition=right;" vertex="1" parent="1">
          <mxGeometry x="900" y="299" width="78" height="78" as="geometry" />
        </mxCell>
        <mxCell id="m9SWjibg19vGXVu4Jazo-23" value="State file" style="verticalLabelPosition=bottom;html=1;verticalAlign=top;align=center;strokeColor=none;fillColor=#00BEF2;shape=mxgraph.azure.cloud_services_configuration_file;pointerEvents=1;" vertex="1" parent="1">
          <mxGeometry x="833" y="145.5" width="47.5" height="50" as="geometry" />
        </mxCell>
        <mxCell id="m9SWjibg19vGXVu4Jazo-24" value="Terraform detects Load Balancer code is gone,&amp;nbsp;&lt;br&gt;deletes the Load Balancer &lt;br&gt;and removes it from State&amp;nbsp;" style="edgeStyle=orthogonalEdgeStyle;rounded=0;orthogonalLoop=1;jettySize=auto;html=1;entryX=-0.008;entryY=0.729;entryDx=0;entryDy=0;entryPerimeter=0;" edge="1" parent="1" source="m9SWjibg19vGXVu4Jazo-25" target="m9SWjibg19vGXVu4Jazo-23">
          <mxGeometry x="-0.5768" y="-24" relative="1" as="geometry">
            <mxPoint x="782" y="290.5" as="sourcePoint" />
            <Array as="points">
              <mxPoint x="782" y="181.5" />
              <mxPoint x="833" y="181.5" />
            </Array>
            <mxPoint as="offset" />
          </mxGeometry>
        </mxCell>
        <mxCell id="m9SWjibg19vGXVu4Jazo-25" value="Alice&#39;s Load &lt;br&gt;Balancer" style="outlineConnect=0;fontColor=#232F3E;gradientColor=none;fillColor=#5A30B5;strokeColor=none;dashed=0;verticalLabelPosition=middle;verticalAlign=middle;align=right;html=1;fontSize=12;fontStyle=0;aspect=fixed;pointerEvents=1;shape=mxgraph.aws4.application_load_balancer;labelPosition=left;" vertex="1" parent="1">
          <mxGeometry x="688" y="39" width="78" height="78" as="geometry" />
        </mxCell>
        <mxCell id="m9SWjibg19vGXVu4Jazo-26" value="Bob&#39;s Terraform code &lt;br&gt;in his Feature Branch" style="text;html=1;resizable=0;autosize=1;align=center;verticalAlign=middle;points=[];fillColor=none;strokeColor=none;rounded=0;fontStyle=1" vertex="1" parent="1">
          <mxGeometry x="630" y="388.5" width="133" height="32" as="geometry" />
        </mxCell>
        <mxCell id="m9SWjibg19vGXVu4Jazo-30" style="edgeStyle=orthogonalEdgeStyle;rounded=0;orthogonalLoop=1;jettySize=auto;html=1;" edge="1" parent="1" source="m9SWjibg19vGXVu4Jazo-29" target="m9SWjibg19vGXVu4Jazo-22">
          <mxGeometry relative="1" as="geometry" />
        </mxCell>
        <mxCell id="m9SWjibg19vGXVu4Jazo-29" value="New AMI" style="outlineConnect=0;fontColor=#232F3E;gradientColor=none;fillColor=#D05C17;strokeColor=none;dashed=0;verticalLabelPosition=middle;verticalAlign=middle;align=right;html=1;fontSize=12;fontStyle=0;aspect=fixed;pointerEvents=1;shape=mxgraph.aws4.ami;labelPosition=left;" vertex="1" parent="1">
          <mxGeometry x="746" y="299" width="78" height="78" as="geometry" />
        </mxCell>
      </root>
    </mxGraphModel>
  </diagram>
</mxfile>
